<svg width="1466" height="93" viewBox="0 0 1466 93" fill="none" xmlns="http://www.w3.org/2000/svg">
<path d="M264.17 43.01C166.564 77.7829 103.786 74.4729 0.206787 56.211C91.763 94.8659 152.768 108.596 268.931 63.4022C385.094 18.2085 437.426 22.4877 556.802 24.6066C443.369 -2.96623 370.412 -0.772625 264.17 43.01Z" fill="#53392C"/>
<path d="M694.998 37.7592C597.389 72.5489 534.615 69.2485 431.043 51.0019C522.589 89.6443 583.589 103.366 699.755 58.1517C815.922 12.9378 868.25 17.2091 987.621 19.3095C874.198 -8.24695 801.244 -6.04191 694.998 37.7592Z" fill="#53392C"/>
<path d="M1173.16 40.5459C1075.55 75.3355 1012.78 72.0351 909.206 53.7885C1000.75 92.4309 1061.75 106.152 1177.92 60.9383C1294.09 15.7244 1346.41 19.9957 1465.78 22.0961C1352.36 -5.46033 1279.41 -3.25529 1173.16 40.5459Z" fill="#53392C"/>
<path d="M264.17 43.01C166.564 77.7829 103.786 74.4729 0.206787 56.211C91.763 94.8659 152.768 108.596 268.931 63.4022C385.094 18.2085 437.426 22.4877 556.802 24.6066C443.369 -2.96623 370.412 -0.772625 264.17 43.01Z" stroke="black"/>
<path d="M694.998 37.7592C597.389 72.5489 534.615 69.2485 431.043 51.0019C522.589 89.6443 583.589 103.366 699.755 58.1517C815.922 12.9378 868.25 17.2091 987.621 19.3095C874.198 -8.24695 801.244 -6.04191 694.998 37.7592Z" stroke="black"/>
<path d="M1173.16 40.5459C1075.55 75.3355 1012.78 72.0351 909.206 53.7885C1000.75 92.4309 1061.75 106.152 1177.92 60.9383C1294.09 15.7244 1346.41 19.9957 1465.78 22.0961C1352.36 -5.46033 1279.41 -3.25529 1173.16 40.5459Z" stroke="black"/>
</svg>
